<?xml version="1.0" encoding="utf-8"?>
<!-- Generator: Adobe Illustrator 25.4.1, SVG Export Plug-In . SVG Version: 6.00 Build 0)  -->
<svg version="1.1" id="logo_by_moky" xmlns="http://www.w3.org/2000/svg" xmlns:xlink="http://www.w3.org/1999/xlink" x="0px"
	 y="0px" viewBox="0 0 484.7 484.7" enable-background="new 0 0 484.7 484.7" xml:space="preserve">
<linearGradient id="bg_00000145762372985254815780000012791447639903587477_" gradientUnits="userSpaceOnUse" x1="111.617" y1="-37.9236" x2="231.6956" y2="410.2156" gradientTransform="matrix(0.866 -0.5 0.5 0.866 -23.2965 143.0561)">
	<stop  offset="0.2247" style="stop-color:#FF0056"/>
	<stop  offset="0.2927" style="stop-color:#F7045B"/>
	<stop  offset="0.3979" style="stop-color:#E10F6A"/>
	<stop  offset="0.5273" style="stop-color:#BE2181"/>
	<stop  offset="0.6758" style="stop-color:#8C3AA2"/>
	<stop  offset="0.8381" style="stop-color:#4E59CC"/>
	<stop  offset="1" style="stop-color:#087CFA"/>
</linearGradient>
<polygon id="bg" fill="url(#bg_00000145762372985254815780000012791447639903587477_)" points="242.4,2.2 34.4,122.3 34.4,362.4 
	242.4,482.5 450.3,362.4 450.3,122.3 "/>
<g id="svga">
	<g>
		<path fill="#FFFFFF" d="M69.1,278.7v-1.5c0-3.4,0.6-5.7,1.7-6.6c1.1-0.9,3.4-1.1,6.7-0.3c7.4,2,14.8,2.9,22.3,2.9
			c5.9,0,10-0.6,12.4-1.7c2.4-1.2,3.6-3.2,3.6-6.1c0-2.2-0.8-4-2.3-5.6c-1.6-1.6-4.7-3.7-9.4-6.5l-18.8-11
			c-9.9-5.8-14.8-14-14.8-24.6c0-8.2,2.7-14.4,8.1-18.5c5.4-4.1,14.1-6.1,26-6.1c6.6,0,12.7,0.8,18.3,2.3c3.5,0.9,5.9,2.1,7,3.4
			s1.7,3.5,1.7,6.9v1.5c0,3.5-0.6,5.8-1.7,6.6c-1.2,0.9-3.4,0.9-6.9-0.1c-5.1-1.6-11.2-2.3-18.3-2.3c-5,0-8.5,0.5-10.7,1.5
			c-2.2,0.9-3.2,2.8-3.2,5.4c0,1.7,0.6,3.3,1.7,4.5c1.1,1.2,3.3,2.8,6.4,4.7l19.5,11.5c6.2,3.6,10.7,7.4,13.5,11.3
			c2.8,3.9,4.2,9,4.2,15.2c0,8.6-2.8,15.2-8.6,19.6c-5.7,4.5-15,6.6-27.9,6.6c-8.1,0-15.5-0.9-22.1-2.8c-3.4-0.9-5.7-2.1-6.7-3.3
			C69.6,284.3,69.1,282,69.1,278.7z"/>
		<path fill="#FFFFFF" d="M230.2,202.8l-14.6,60.7c-2.4,10.4-5.4,17.7-9,21.8c-3.5,4-9.6,6.1-18.2,6.1s-14.6-2.1-18.2-6.1
			c-3.5-4-6.5-11.3-9-21.8l-14.6-60.7c-0.8-3.4-0.8-5.5,0.2-6.6c0.9-1,3-1.6,6.5-1.6h3.4c3.4,0,5.9,0.6,7.2,1.7
			c1.4,1.1,2.5,3.4,3.2,6.6l13.6,59.7c1,4.7,2.1,7.8,2.9,9.1c0.9,1.4,2.4,2.1,4.7,2.1c2.2,0,3.8-0.7,4.7-2.1
			c0.9-1.4,1.9-4.4,2.9-9.1l13.6-59.7c0.7-3.4,1.7-5.5,3.2-6.6c1.4-1.1,3.9-1.7,7.2-1.7h3.4c3.4,0,5.5,0.5,6.4,1.6
			C230.8,197.3,230.8,199.4,230.2,202.8z"/>
		<path fill="#FFFFFF" d="M298.4,268.1v-24c0-3.4,0.6-5.6,1.7-6.7c1.2-1.2,3.4-1.7,6.7-1.7h1.2c3.4,0,5.6,0.6,6.7,1.7
			c1.2,1.2,1.7,3.4,1.7,6.7v25.4c0,6.6-1.1,11.5-3.2,14.8c-2.2,3.2-6.2,5.3-12.1,6.3c-3.9,0.7-8,1-12.3,1c-16.2,0-28-2.8-35.2-8.6
			c-7.2-5.7-10.9-15.4-10.9-29.1v-23.4c0-11.2,3.7-20.2,11.1-27.1c7.4-6.8,18.8-10.3,34.2-10.3c6.8,0,13.2,0.9,19,2.9
			c3.1,1.1,5.3,2.3,6.3,3.7c1,1.4,1.6,3.7,1.6,6.9v1.2c0,3.4-0.6,5.6-1.7,6.6c-1.1,0.9-3.3,0.9-6.4,0c-6-2-12.1-2.9-18.3-2.9
			c-9.5,0-16.1,1.6-20,4.7c-3.8,3.1-5.7,8.4-5.7,15.9v23.4c0,5.7,1.8,10.1,5.5,13.2c3.7,3.1,10.5,4.7,20.4,4.7c2.2,0,4-0.1,5.6-0.3
			C297.1,272.8,298.4,271.2,298.4,268.1z"/>
		<path fill="#FFFFFF" d="M398.5,220.9l16.5,60.7c0.9,3.4,0.9,5.5,0.1,6.6c-0.9,1-2.9,1.6-6.4,1.6h-2.8c-3.4,0-5.9-0.5-7.2-1.6
			c-1.4-1-2.6-3.3-3.4-6.6l-3.8-15h-38.7l-4,15c-0.9,3.4-2.1,5.5-3.4,6.6c-1.4,1-3.9,1.6-7.2,1.6h-2.8c-3.4,0-5.5-0.5-6.4-1.6
			c-0.9-1-0.8-3.3,0.1-6.6l16.5-60.7c1.5-5.5,2.8-9.6,3.9-12.6c1.1-2.8,2.7-5.7,4.7-8.3c2-2.7,4.3-4.5,7.1-5.5
			c2.8-1,6.5-1.6,10.9-1.6c4.4,0,8,0.5,10.9,1.6c2.8,1,5.3,2.8,7.1,5.5c2,2.7,3.5,5.4,4.7,8.3C395.8,211.3,397.1,215.4,398.5,220.9z
			 M364.3,221.8l-7.1,27.3h29.5l-7.1-27.3c-1.3-4.8-2.3-7.8-3.1-9.1c-0.8-1.3-2.3-2-4.6-2c-2.2,0-3.8,0.7-4.6,2
			C366.7,214,365.6,217.1,364.3,221.8z"/>
	</g>
</g>
</svg>
